<?xml version="1.0" encoding="UTF-8"?>
<!DOCTYPE svg PUBLIC "-//W3C//DTD SVG 1.1//EN" "http://www.w3.org/Graphics/SVG/1.1/DTD/svg11.dtd">
<!-- Creator: CorelDRAW 2021 (64-Bit) -->
<svg xmlns="http://www.w3.org/2000/svg" xml:space="preserve" width="512px" height="450px" version="1.1" shape-rendering="geometricPrecision" text-rendering="geometricPrecision" image-rendering="optimizeQuality" fill-rule="evenodd" clip-rule="evenodd"
viewBox="0 0 512 449.84"
 xmlns:xlink="http://www.w3.org/1999/xlink"
 xmlns:xodm="http://www.corel.com/coreldraw/odm/2003">
 <g id="Layer_x0020_1">
  <metadata id="CorelCorpID_0Corel-Layer"/>
  <path fill="black" d="M460.87 409.11l40.74 0 0 40.73 -40.74 0 0 -40.73zm0 -409.11l40.74 0 0 35.15 -40.74 -35.15zm-200.03 211.03l73.83 0 0 171.97 -190.09 0 0 -71.8 -73.83 0 0 -171.98 27.17 0 162.92 0 0 71.81zm-89.09 100.17l0 44.64 135.76 0 0 -117.64 -46.67 0 0 73 -89.09 0zm-73.83 -144.81l135.76 0 0 117.64 -135.76 0 0 -117.64zm132.52 242.72l40.73 0 0 40.73 -40.73 0 0 -40.73zm-230.44 0l40.73 0 0 40.73 -40.73 0 0 -40.73zm0 -204.55l40.73 0 0 40.73 -40.73 0 0 -40.73zm230.44 -204.56l40.73 0 0 40.73 -40.73 0 0 -40.73zm-230.44 0l40.73 0 0 40.73 -40.73 0 0 -40.73zm460.87 204.56l40.74 0 0 40.73 -40.74 0 0 -40.73z"/>
  <polygon fill="#E01E00" points="338.55,9.94 404.72,66.23 461,0.06 502.12,35.09 445.83,101.22 512,157.51 476.98,198.62 410.84,142.37 354.56,208.53 313.44,173.51 369.73,107.38 303.53,51.06 "/>
 </g>
</svg>
